<mxfile host="app.diagrams.net" modified="2024-06-09T08:31:03.385Z" agent="Mozilla/5.0 (Windows NT 10.0; Win64; x64) AppleWebKit/537.36 (KHTML, like Gecko) Chrome/125.0.0.0 Safari/537.36" version="24.4.0" etag="fZTHYtUa8x3N3UuO-J0c" type="github">
  <diagram name="หน้า-1" id="1z8aL9eX5Q0JwpLyDS34">
    <mxGraphModel>
      <root>
        <mxCell id="0" />
        <mxCell id="1" parent="0" />
      </root>
    </mxGraphModel>
  </diagram>
</mxfile>
